<svg width="40" height="41" viewBox="0 0 40 41" fill="none" xmlns="http://www.w3.org/2000/svg">
<path d="M38.1941 0.145386H1.59142C0.711165 0.145386 0 0.860386 0 1.74539V38.5454C0 39.4304 0.711165 40.1454 1.59142 40.1454H38.1941C39.0743 40.1454 39.7855 39.4304 39.7855 38.5454V1.74539C39.7855 0.860386 39.0743 0.145386 38.1941 0.145386ZM33.5988 11.8204H30.421C27.9294 11.8204 27.447 13.0104 27.447 14.7604V18.6154H33.3949L32.6191 24.6504H27.447V40.1454H21.2454V24.6554H16.0584V18.6154H21.2454V14.1654C21.2454 9.00039 24.3835 6.18539 28.9688 6.18539C31.1669 6.18539 33.0518 6.35039 33.6038 6.42539V11.8204H33.5988Z" fill="#DA2865"/>
</svg>
