<svg width="125" height="17" viewBox="0 0 125 17" fill="none" xmlns="http://www.w3.org/2000/svg">
<path d="M0.881577 16.5262V1.22525H4.52294V16.5262H0.881577ZM10.871 6.91156V16.5262H7.37481V1.22525H10.4745L18.0502 10.3469V1.22525H21.5469V16.5262H18.7779L10.871 6.91156ZM36.688 15.242C35.8396 15.7684 34.9708 16.1564 34.0813 16.4141C33.1915 16.6679 32.2569 16.7951 31.2813 16.7951C30.1779 16.7951 29.1606 16.6122 28.2365 16.2497C27.3087 15.8842 26.4988 15.3465 25.8054 14.6407C25.0916 13.905 24.5468 13.0425 24.1745 12.0607C23.7986 11.0749 23.6124 10.0183 23.6124 8.88705C23.6124 6.5086 24.3435 4.5932 25.8088 3.13689C27.2744 1.68456 29.2089 0.956299 31.612 0.956299C32.4746 0.956299 33.3155 1.05709 34.1329 1.26243C34.9539 1.46777 35.7639 1.78163 36.564 2.20353V5.79553C35.7843 5.2464 34.9984 4.83573 34.2123 4.56702C33.4227 4.29432 32.6361 4.16007 31.8466 4.16007C30.4226 4.16007 29.2985 4.57824 28.4811 5.4183C27.6642 6.25836 27.254 7.41203 27.254 8.88705C27.254 10.3172 27.6436 11.4596 28.4263 12.3107C29.2053 13.1657 30.257 13.5913 31.5779 13.5913C32.4258 13.5913 33.2776 13.4309 34.1329 13.1061C34.9878 12.7814 35.8396 12.2997 36.688 11.665V15.242ZM52.0427 1.22525V9.9846C52.0427 12.1278 51.4565 13.7967 50.2808 14.9953C49.1048 16.1941 47.4636 16.7951 45.3565 16.7951C43.2536 16.7951 41.6152 16.1941 40.4394 14.9953C39.2639 13.7967 38.6777 12.1278 38.6777 9.9846V1.22525H42.2362V9.83165C42.2362 11.0489 42.5049 11.9786 43.0433 12.6243C43.5807 13.2702 44.3637 13.5913 45.3844 13.5913C46.4018 13.5913 47.1773 13.2702 47.7087 12.628C48.2391 11.9898 48.5047 11.0562 48.5047 9.83165V1.22525H52.0427ZM58.2908 13.7261H60.3392C61.2566 13.7261 61.9079 13.5876 62.2978 13.3116C62.6871 13.0315 62.884 12.5724 62.884 11.9337C62.884 11.2765 62.677 10.791 62.2634 10.4774C61.8495 10.1637 61.2013 10.0073 60.3186 10.0073H58.2908V13.7261ZM60.1186 7.27382C60.7565 7.27382 61.2321 7.14332 61.5462 6.87811C61.8601 6.61688 62.0151 6.22117 62.0151 5.68725C62.0151 5.0972 61.8565 4.65635 61.5393 4.36916C61.2256 4.0815 60.7495 3.9358 60.1186 3.9358H58.2908V7.27382H60.1186ZM54.7324 16.5262V1.22525H59.946C61.8048 1.22525 63.2084 1.5536 64.1529 2.21475C65.1016 2.87543 65.5736 3.85395 65.5736 5.15309C65.5736 5.82898 65.4149 6.42277 65.0946 6.93424C64.7735 7.44571 64.3046 7.84913 63.6944 8.14755C64.6805 8.48362 65.4186 8.98037 65.9012 9.64105C66.3871 10.302 66.6287 11.1348 66.6287 12.139C66.6287 13.6065 66.1631 14.7041 65.2357 15.4321C64.3084 16.1602 62.9118 16.5262 61.0461 16.5262H54.7324ZM72.8321 10.9255H77.0046L75.0252 5.10093L72.8321 10.9255ZM66.9149 16.5262L73.0772 1.22525H77.1565L82.6598 16.5262H78.9112L77.9008 13.5467H71.8113L70.6803 16.5262H66.9149ZM85.9387 16.5262V4.07051H81.2631V1.22525H94.3385V4.07051H89.6628V16.5262H85.9387ZM98.8076 8.88705C98.8076 10.2498 99.1869 11.3736 99.942 12.2508C100.701 13.1285 101.666 13.5689 102.839 13.5689C104.014 13.5689 104.983 13.1285 105.742 12.2508C106.497 11.3736 106.876 10.2498 106.876 8.88705C106.876 7.51657 106.497 6.38886 105.742 5.50787C104.983 4.62291 104.014 4.1823 102.839 4.1823C101.666 4.1823 100.701 4.62291 99.942 5.50787C99.1869 6.38886 98.8076 7.51657 98.8076 8.88705ZM95.166 8.88705C95.166 7.74834 95.3523 6.69874 95.7212 5.73192C96.0935 4.76487 96.6453 3.90236 97.38 3.14438C98.0938 2.41635 98.9043 1.87097 99.8108 1.51642C100.718 1.1579 101.725 0.978749 102.839 0.978749C103.962 0.978749 104.98 1.15789 105.89 1.52016C106.801 1.88242 107.611 2.42383 108.324 3.14438C109.052 3.90236 109.604 4.76487 109.976 5.73192C110.352 6.69874 110.538 7.74834 110.538 8.88705C110.538 10.0183 110.352 11.0637 109.976 12.0307C109.604 12.998 109.052 13.8528 108.324 14.5958C107.604 15.3238 106.787 15.873 105.873 16.2423C104.962 16.6122 103.949 16.7951 102.839 16.7951C101.732 16.7951 100.728 16.6122 99.8209 16.2497C98.9146 15.8842 98.1008 15.3313 97.38 14.5958C96.6523 13.8528 96.1005 12.998 95.7282 12.0307C95.3523 11.0637 95.166 10.0183 95.166 8.88705ZM117.928 7.49787C118.583 7.49787 119.069 7.34865 119.39 7.05374C119.71 6.7586 119.869 6.31075 119.869 5.70573C119.869 5.13064 119.703 4.69026 119.369 4.38763C119.035 4.08523 118.555 3.9358 117.928 3.9358H116.228V7.49787H117.928ZM112.69 16.5262V1.22525H117.907C119.825 1.22525 121.242 1.58751 122.159 2.30806C123.072 3.02861 123.531 4.14885 123.531 5.66456C123.531 6.50859 123.328 7.23289 122.924 7.83394C122.521 8.43498 121.904 8.94294 121.069 9.35736C121.421 9.49558 121.735 9.72712 122.014 10.0517C122.293 10.3766 122.535 10.7872 122.745 11.284L125 16.5262H121.01L119.21 12.1166C118.921 11.4145 118.59 10.9332 118.221 10.6717C117.849 10.4065 117.324 10.2758 116.642 10.2758C116.59 10.2758 116.518 10.2795 116.431 10.287C116.342 10.2945 116.276 10.2982 116.228 10.2982V16.5262H112.69Z" fill="#DA2865"/>
</svg>
